<mxfile host="app.diagrams.net" modified="2021-04-07T06:39:23.251Z" agent="5.0 (Windows NT 10.0; Win64; x64) AppleWebKit/537.36 (KHTML, like Gecko) Chrome/89.0.4389.114 Safari/537.36" etag="y_WpZXmrhYT6kr6uSwwE" version="14.5.8" type="github">
  <diagram id="EXYbzJqJS_ykaDXQf24J" name="Page-1">
    <mxGraphModel dx="599" dy="310" grid="1" gridSize="10" guides="1" tooltips="1" connect="1" arrows="1" fold="1" page="1" pageScale="1" pageWidth="850" pageHeight="1100" math="0" shadow="0">
      <root>
        <mxCell id="0" />
        <mxCell id="1" parent="0" />
        <mxCell id="4Zz6R4RiP30P9EFLJrL6-6" value="" style="edgeStyle=orthogonalEdgeStyle;rounded=0;orthogonalLoop=1;jettySize=auto;html=1;" edge="1" parent="1" source="4Zz6R4RiP30P9EFLJrL6-1" target="4Zz6R4RiP30P9EFLJrL6-5">
          <mxGeometry relative="1" as="geometry">
            <Array as="points">
              <mxPoint x="320" y="340" />
            </Array>
          </mxGeometry>
        </mxCell>
        <mxCell id="4Zz6R4RiP30P9EFLJrL6-8" value="" style="edgeStyle=orthogonalEdgeStyle;rounded=0;orthogonalLoop=1;jettySize=auto;html=1;" edge="1" parent="1" source="4Zz6R4RiP30P9EFLJrL6-1" target="4Zz6R4RiP30P9EFLJrL6-7">
          <mxGeometry relative="1" as="geometry">
            <Array as="points">
              <mxPoint x="480" y="340" />
            </Array>
          </mxGeometry>
        </mxCell>
        <mxCell id="4Zz6R4RiP30P9EFLJrL6-10" value="" style="edgeStyle=orthogonalEdgeStyle;rounded=0;orthogonalLoop=1;jettySize=auto;html=1;" edge="1" parent="1" source="4Zz6R4RiP30P9EFLJrL6-1" target="4Zz6R4RiP30P9EFLJrL6-9">
          <mxGeometry relative="1" as="geometry" />
        </mxCell>
        <mxCell id="4Zz6R4RiP30P9EFLJrL6-1" value="省公司Control Room" style="shape=cylinder3;whiteSpace=wrap;html=1;boundedLbl=1;backgroundOutline=1;size=15;" vertex="1" parent="1">
          <mxGeometry x="320" y="110" width="160" height="100" as="geometry" />
        </mxCell>
        <mxCell id="4Zz6R4RiP30P9EFLJrL6-5" value="济南地市工作站" style="whiteSpace=wrap;html=1;fillColor=#dae8fc;strokeColor=#6c8ebf;" vertex="1" parent="1">
          <mxGeometry x="160" y="290" width="120" height="60" as="geometry" />
        </mxCell>
        <mxCell id="4Zz6R4RiP30P9EFLJrL6-7" value="青岛工作站" style="whiteSpace=wrap;html=1;fillColor=#dae8fc;strokeColor=#6c8ebf;" vertex="1" parent="1">
          <mxGeometry x="520" y="290" width="120" height="60" as="geometry" />
        </mxCell>
        <mxCell id="4Zz6R4RiP30P9EFLJrL6-9" value="其他地市工作站" style="whiteSpace=wrap;html=1;fillColor=#dae8fc;strokeColor=#6c8ebf;" vertex="1" parent="1">
          <mxGeometry x="340" y="290" width="120" height="60" as="geometry" />
        </mxCell>
        <mxCell id="4Zz6R4RiP30P9EFLJrL6-19" value="&lt;p style=&quot;line-height: 100%&quot;&gt;&lt;font style=&quot;font-size: 10px&quot;&gt;地市工作站同时需要工作站/屏幕/网线（可以连接到省公司私有云）&lt;/font&gt;&lt;/p&gt;" style="shape=ext;rounded=1;html=1;whiteSpace=wrap;strokeWidth=3;" vertex="1" parent="1">
          <mxGeometry x="170" y="420" width="100" height="70" as="geometry" />
        </mxCell>
        <mxCell id="4Zz6R4RiP30P9EFLJrL6-24" value="" style="endArrow=none;html=1;" edge="1" parent="1">
          <mxGeometry width="50" height="50" relative="1" as="geometry">
            <mxPoint x="219.41" y="420" as="sourcePoint" />
            <mxPoint x="219.41" y="350" as="targetPoint" />
          </mxGeometry>
        </mxCell>
        <mxCell id="4Zz6R4RiP30P9EFLJrL6-25" value="" style="endArrow=none;html=1;" edge="1" parent="1">
          <mxGeometry width="50" height="50" relative="1" as="geometry">
            <mxPoint x="399.40999999999997" y="420" as="sourcePoint" />
            <mxPoint x="399.40999999999997" y="350" as="targetPoint" />
          </mxGeometry>
        </mxCell>
        <mxCell id="4Zz6R4RiP30P9EFLJrL6-26" value="&lt;p style=&quot;line-height: 100%&quot;&gt;&lt;font style=&quot;font-size: 10px&quot;&gt;一个前台机器人，人工启动流程&lt;/font&gt;&lt;/p&gt;" style="shape=ext;rounded=1;html=1;whiteSpace=wrap;strokeWidth=3;" vertex="1" parent="1">
          <mxGeometry x="350" y="420" width="100" height="70" as="geometry" />
        </mxCell>
        <mxCell id="4Zz6R4RiP30P9EFLJrL6-29" value="" style="edgeStyle=orthogonalEdgeStyle;rounded=0;orthogonalLoop=1;jettySize=auto;html=1;" edge="1" parent="1" source="4Zz6R4RiP30P9EFLJrL6-27" target="4Zz6R4RiP30P9EFLJrL6-19">
          <mxGeometry relative="1" as="geometry" />
        </mxCell>
        <mxCell id="4Zz6R4RiP30P9EFLJrL6-27" value="开发/运行都在同一台主机上" style="text;html=1;strokeColor=#36393d;fillColor=#eeeeee;align=center;verticalAlign=middle;whiteSpace=wrap;rounded=0;shadow=0;" vertex="1" parent="1">
          <mxGeometry x="170" y="360" width="100" height="30" as="geometry" />
        </mxCell>
      </root>
    </mxGraphModel>
  </diagram>
</mxfile>
